#N canvas 827 239 527 327 12;
#X obj 597 279 adc~;
#X obj 599 462 dac~;
#X obj 74 71 knob 50 0 127 0 0 empty empty #191919 #696969 #E1E1E1 1 0 0 0 1 270 0 0 0;
#X obj 134 71 knob 50 0 127 0 0 empty empty #191919 #696969 #E1E1E1 1 0 0 0 1 270 0 0 0;
#X obj 191 71 knob 50 0 127 0 0 empty empty #191919 #696969 #E1E1E1 1 0 0 0 1 270 0 0 0;
#X obj 250 71 knob 50 0 127 0 0 empty empty #191919 #696969 #E1E1E1 1 0 0 0 1 270 0 0 0;
#X obj 551 361 free.rev~ 0.5 0.7 0 0.5;
#X msg 74 165 decay;
#X msg 171 165 damp;
#X msg 250 165 width;
#X msg 327 165 wet;
#X connect 0 0 6 0;
#X connect 0 1 6 1;
#X connect 2 0 7 0;
#X connect 3 0 8 0;
#X connect 4 0 9 0;
#X connect 5 0 10 0;
#X connect 6 0 1 0;
#X connect 6 1 1 1;
#X connect 7 0 6 0;
#X connect 8 0 6 0;
#X connect 9 0 6 0;
#X connect 10 0 6 0;
